:FULLY-SPECIFIED
:FORCE-ALL-JOINTS-BE-3DOF
:DEGREES
714
root -11.5081 13.96 -38.3392 514.275 -60.5437 208.728
lfemur -62.3569 25.1117 -0.469902
ltibia 72.0499 0 0
lfoot -5.84617 -8.35841 0
ltoes -2.57736 0 0
rfemur 7.46502 -10.5645 10.4396
rtibia 44.4068 0 0
rfoot -26.0206 -26.1893 0
rtoes -23.0393 0 0
lowerback 12.2031 1.45571 7.58489
upperback -1.56362 3.3058 5.48266
thorax -8.46639 1.27921 0.985186
lowerneck -5.05267 5.10212 0.151708
upperneck 4.72128 6.71238 1.58843
head 2.27823 3.39073 0.710966
lclavicle -7.52035e-14 -9.05874e-15 0
lhumerus 62.5765 16.933 105.994
lradius 11.3581 0 0
lwrist -77.46 0 0
lhand -34.0603 40.8317 0
lfingers 7.12502 0 0
lthumb -7.23722 70.7176 0
rclavicle -7.52035e-14 -9.05874e-15 0
rhumerus -76.4704 19.7495 -96.1399
rradius 116.449 0 0
rwrist -70.8127 0 0
rhand -13.9594 -45.8504 0
rfingers 7.12502 0 0
rthumb 12.164 -75.4222 0
715
root -11.5209 13.9556 -38.341 513.825 -60.65 209.231
lfemur -62.2456 25.0372 -0.523666
ltibia 72.1588 0 0
lfoot -5.85126 -8.23212 0
ltoes -2.58305 0 0
rfemur 7.3396 -10.6277 10.5412
rtibia 44.4149 0 0
rfoot -25.997 -26.2408 0
rtoes -23.0854 0 0
lowerback 12.1787 1.47044 7.56926
upperback -1.57515 3.32177 5.46755
thorax -8.46462 1.28768 0.976115
lowerneck -5.02005 5.0368 0.111869
upperneck 4.6867 6.62556 1.62177
head 2.26873 3.34715 0.723856
lclavicle -7.36855e-14 -9.58448e-15 0
lhumerus 62.0084 16.7182 106.028
lradius 11.7984 0 0
lwrist -77.1544 0 0
lhand -33.8949 40.7302 0
lfingers 7.12502 0 0
lthumb -7.07775 70.6096 0
rclavicle -7.36855e-14 -9.58448e-15 0
rhumerus -75.9457 19.7185 -95.8895
rradius 116.202 0 0
rwrist -70.535 0 0
rhand -13.9218 -45.628 0
rfingers 7.12502 0 0
rthumb 12.1998 -75.1891 0
716
root -11.5337 13.9512 -38.3428 513.368 -60.7588 209.744
lfemur -62.1379 24.962 -0.579207
ltibia 72.2749 0 0
lfoot -5.8603 -8.10329 0
ltoes -2.5915 0 0
rfemur 7.21518 -10.6916 10.6451
rtibia 44.4179 0 0
rfoot -25.9716 -26.2947 0
rtoes -23.1405 0 0
lowerback 12.1535 1.48531 7.55482
upperback -1.58699 3.33799 5.45261
thorax -8.46261 1.29621 0.966553
lowerneck -4.98551 4.97064 0.0728093
upperneck 4.65036 6.53763 1.65439
head 2.2585 3.303 0.736268
lclavicle -7.20368e-14 -1.01825e-14 0
lhumerus 61.4345 16.4994 106.063
lradius 12.2443 0 0
lwrist -76.8473 0 0
lhand -33.7261 40.6217 0
lfingers 7.12502 0 0
lthumb -6.91505 70.4944 0
rclavicle -7.20368e-14 -1.01825e-14 0
rhumerus -75.414 19.6863 -95.6363
rradius 115.947 0 0
rwrist -70.2434 0 0
rhand -13.869 -45.3881 0
rfingers 7.12502 0 0
rthumb 12.2503 -74.9371 0
717
root -11.5466 13.9469 -38.3446 512.908 -60.8695 210.264
lfemur -62.0356 24.887 -0.636199
ltibia 72.3981 0 0
lfoot -5.87396 -7.97298 0
ltoes -2.60312 0 0
rfemur 7.09343 -10.7555 10.7505
rtibia 44.4147 0 0
rfoot -25.9444 -26.3508 0
rtoes -23.2058 0 0
lowerback 12.1274 1.50015 7.54195
upperback -1.59908 3.35431 5.43802
thorax -8.46032 1.30471 0.956519
lowerneck -4.94907 4.90426 0.0351419
upperneck 4.61237 6.4494 1.68577
head 2.24753 3.25869 0.747964
lclavicle -7.02523e-14 -1.08595e-14 0
lhumerus 60.8604 16.2784 106.099
lradius 12.6915 0 0
lwrist -76.542 0 0
lhand -33.5554 40.5061 0
lfingers 7.12502 0 0
lthumb -6.75047 70.3722 0
rclavicle -7.02523e-14 -1.08595e-14 0
rhumerus -74.8803 19.6532 -95.3827
rradius 115.687 0 0
rwrist -69.9387 0 0
rhand -13.7988 -45.1303 0
rfingers 7.12502 0 0
rthumb 12.3175 -74.6655 0
718
root -11.5594 13.9425 -38.3464 512.45 -60.9812 210.787
lfemur -61.9408 24.813 -0.69432
ltibia 72.5285 0 0
lfoot -5.89288 -7.84224 0
ltoes -2.61835 0 0
rfemur 6.97602 -10.8187 10.8567
rtibia 44.4045 0 0
rfoot -25.9153 -26.4088 0
rtoes -23.2824 0 0
lowerback 12.1006 1.5148 7.53107
upperback -1.61133 3.37059 5.42401
thorax -8.45775 1.31309 0.946033
lowerneck -4.9108 4.83829 -0.000518437
upperneck 4.57282 6.36172 1.71538
head 2.2358 3.21462 0.758704
lclavicle -6.83266e-14 -1.16222e-14 0
lhumerus 60.2918 16.0571 106.135
lradius 13.1357 0 0
lwrist -76.2419 0 0
lhand -33.3841 40.3833 0
lfingers 7.12502 0 0
lthumb -6.58531 70.243 0
rclavicle -6.83266e-14 -1.16222e-14 0
rhumerus -74.3497 19.6193 -95.1314
rradius 115.424 0 0
rwrist -69.6218 0 0
rhand -13.7087 -44.854 0
rfingers 7.12502 0 0
rthumb 12.4038 -74.3738 0
719
root -11.5722 13.9381 -38.3482 511.996 -61.0931 211.308
lfemur -61.8555 24.7406 -0.753246
ltibia 72.666 0 0
lfoot -5.9177 -7.71212 0
ltoes -2.6376 0 0
rfemur 6.86464 -10.8806 10.9628
rtibia 44.3862 0 0
rfoot -25.8844 -26.4686 0
rtoes -23.3712 0 0
lowerback 12.0732 1.52913 7.52256
upperback -1.62365 3.38668 5.41078
thorax -8.45486 1.32126 0.935115
lowerneck -4.87074 4.77336 -0.0335572
upperneck 4.53182 6.27541 1.74271
head 2.2233 3.17123 0.76825
lclavicle -6.62545e-14 -1.24772e-14 0
lhumerus 59.7346 15.8373 106.171
lradius 13.5726 0 0
lwrist -75.9503 0 0
lhand -33.2136 40.2534 0
lfingers 7.12502 0 0
lthumb -6.42091 70.1067 0
rclavicle -6.62545e-14 -1.24772e-14 0
rhumerus -73.827 19.5847 -94.8848
rradius 115.159 0 0
rwrist -69.2936 0 0
rhand -13.5966 -44.5589 0
rfingers 7.12502 0 0
rthumb 12.5114 -74.0613 0
720
root -11.585 13.9337 -38.35 511.552 -61.2045 211.823
lfemur -61.7815 24.6707 -0.812654
ltibia 72.8106 0 0
lfoot -5.94909 -7.58369 0
ltoes -2.66131 0 0
rfemur 6.76095 -10.9406 11.0681
rtibia 44.3587 0 0
rfoot -25.8515 -26.53 0
rtoes -23.4734 0 0
lowerback 12.0453 1.54296 7.51683
upperback -1.63598 3.40244 5.39853
thorax -8.45164 1.32913 0.923786
lowerneck -4.82892 4.71009 -0.0633598
upperneck 4.48946 6.19132 1.76723
head 2.21001 3.12892 0.776362
lclavicle -6.40308e-14 -1.34312e-14 0
lhumerus 59.1943 15.6209 106.207
lradius 13.998 0 0
lwrist -75.6707 0 0
lhand -33.0452 40.1163 0
lfingers 7.12502 0 0
lthumb -6.25859 69.9634 0
rclavicle -6.40308e-14 -1.34312e-14 0
rhumerus -73.3175 19.5497 -94.6453
rradius 114.894 0 0
rwrist -68.9547 0 0
rhand -13.4601 -44.2444 0
rfingers 7.12502 0 0
rthumb 12.6423 -73.7274 0
721
root -11.5979 13.9294 -38.3518 511.122 -61.3144 212.328
lfemur -61.7209 24.604 -0.87222
ltibia 72.9623 0 0
lfoot -5.98768 -7.45798 0
ltoes -2.68989 0 0
rfemur 6.66663 -10.9981 11.1718
rtibia 44.3211 0 0
rfoot -25.8167 -26.5927 0
rtoes -23.59 0 0
lowerback 12.0172 1.55616 7.51427
upperback -1.64823 3.41771 5.38749
thorax -8.44806 1.3366 0.912065
lowerneck -4.78539 4.64913 -0.089312
upperneck 4.44584 6.11028 1.7884
head 2.19591 3.08811 0.782802
lclavicle -6.16501e-14 -1.44908e-14 0
lhumerus 58.6767 15.4096 106.244
lradius 14.4077 0 0
lwrist -75.4063 0 0
lhand -32.8804 39.9719 0
lfingers 7.12502 0 0
lthumb -6.09969 69.8131 0
rclavicle -6.16501e-14 -1.44908e-14 0
rhumerus -72.826 19.5144 -94.4154
rradius 114.631 0 0
rwrist -68.6062 0 0
rhand -13.297 -43.9101 0
rfingers 7.12502 0 0
rthumb 12.7988 -73.3715 0
722
root -11.6107 13.925 -38.3536 510.71 -61.4222 212.819
lfemur -61.6756 24.5414 -0.93162
ltibia 73.121 0 0
lfoot -6.03412 -7.33606 0
ltoes -2.72377 0 0
rfemur 6.58336 -11.0523 11.273
rtibia 44.2724 0 0
rfoot -25.7799 -26.6567 0
rtoes -23.7222 0 0
lowerback 11.9888 1.56856 7.51529
upperback -1.66032 3.43236 5.37784
thorax -8.44409 1.34359 0.899973
lowerneck -4.7402 4.59108 -0.110799
upperneck 4.40106 6.03312 1.80571
head 2.18098 3.04922 0.787329
lclavicle -5.91072e-14 -1.56627e-14 0
lhumerus 58.1876 15.2054 106.279
lradius 14.7973 0 0
lwrist -75.1606 0 0
lhand -32.7205 39.8202 0
lfingers 7.12502 0 0
lthumb -5.94551 69.6558 0
rclavicle -5.91072e-14 -1.56627e-14 0
rhumerus -72.3575 19.4789 -94.1978
rradius 114.371 0 0
rwrist -68.2488 0 0
rhand -13.105 -43.5555 0
rfingers 7.12502 0 0
rthumb 12.9832 -72.993 0
